 <svg xmlns="http://www.w3.org/2000/svg" viewBox="0 0 24 24">
  <path fill="currentColor" d="     M4 2h2v2H4V2Z     M20 2h2v2h-2V2Z     M2 4h2v2H2V4Z     M6 4h2v2H6V4Z     M18 4h2v2h-2V4Z     M4 6h2v2H4V6Z     M8 6h2v2H8V6Z     M16 6h2v2h-2V6Z     M6 8h2v2H6V8Z     M10 8h2v2h-2V8Z     M14 8h2v2h-2V8Z     M8 10h2v2H8V10Z     M12 10h2v2h-2V10Z     M10 12h2v2h-2V12Z     M14 12h2v2h-2V12Z     M8 14h2v2H8V14Z     M12 14h2v2h-2V14Z     M16 14h2v2h-2V14Z     M6 16h2v2H6V16Z     M14 16h2v2h-2V16Z     M18 16h2v2h-2V16Z     M4 18h2v2H4V18Z     M16 18h2v2h-2V18Z     M20 18h2v2h-2V18Z     M2 20h2v2H2V20Z     M18 20h2v2h-2V20Z   "></path>
</svg>