<svg xmlns="http://www.w3.org/2000/svg" viewBox="0 0 24 24">
    <path fill="currentColor"
        d="M2 2h4v2H2V2Z M18 2h4v2h-4V2Z  M2 4h2v8H2V4Z  M6 4h2v2H6V4Z  M16 4h2v2h-2V4Z   M20 4h2v8h-2V4Z     M8 6h2v2H8V6Z     M14 6h2v2h-2V6Z     M10 8h4v2h-4V8Z     M4 12h4v2H4v-2Z     M16 12h4v2h-4v-2Z     M8 14h2v2H8v-2Z     M14 14h2v2h-2v-2Z     M6 16h2v2H6v-2Z     M16 16h2v2h-2v-2Z     M4 18h2v2H4v-2Z     M10 18h4v2h-4v-2Z     M18 18h2v2h-2v-2Z     M6 20h4v2H6v-2Z     M14 20h4v2h-4v-2Z   "></path>
</svg>